#!OML:ASF H:\Dans Jumps\Project 1\Capture day 1\Session 1\subject.ASF
:FULLY-SPECIFIED
:DEGREES
448
root 0.553539 19.1088 0.817502 -0.695039 4.27375 -1.71545
lowerback 2.3244 0.609972 -0.690937
upperback 3.26454 0.785924 1.64602
thorax 2.01382 0.358363 2.07263
lowerneck -7.17298 -1.17029 -2.07046
upperneck 33.0678 -1.81957 1.89752
head 12.0654 -0.810094 0.867346
rclavicle -4.37326e-015 -6.16232e-015
rhumerus -27.6196 -4.3208 -81.348
rradius 41.4439
rwrist 21.9468
rhand -23.6926 -22.4255
rfingers 7.12502
rthumb 2.77427 -52.3872
lclavicle -4.37326e-015 -6.16232e-015
lhumerus -25.2564 -10.5378 82.6707
lradius 44.1075
lwrist 34.8486
lhand -24.4788 -10.1205
lfingers 7.12502
lthumb 2.01497 19.8498
rfemur -22.4446 -5.73641 18.7171
rtibia 20.031
rfoot 15.8168 -7.44442
rtoes 9.67285
lfemur -21.5411 7.62835 -18.006
ltibia 15.5187
lfoot 22.8884 -2.21284
ltoes -3.82792
449
root 0.558178 18.8557 1.06017 -1.52339 4.18897 -1.72909
lowerback 2.24718 0.636214 -0.636721
upperback 3.20943 0.821641 1.65788
thorax 1.99938 0.377732 2.05459
lowerneck -7.15394 -1.17032 -2.15776
upperneck 33.4723 -1.82178 1.94078
head 12.2303 -0.815599 0.901967
rclavicle 1.62755e-014 1.5704e-014
rhumerus -27.4527 -4.38771 -81.25
rradius 41.5089
rwrist 21.9993
rhand -23.778 -22.4392
rfingers 7.12502
rthumb 2.69172 -52.4019
lclavicle 1.62755e-014 1.5704e-014
lhumerus -25.3097 -10.4443 82.1093
lradius 44.1959
lwrist 35.0398
lhand -24.5533 -10.2698
lfingers 7.12502
lthumb 1.94299 19.7011
rfemur -21.9641 -5.53055 18.6145
rtibia 20.9184
rfoot 15.9801 -6.66097
rtoes 8.99833
lfemur -20.916 7.64863 -18.0159
ltibia 16.3072
lfoot 23.1818 -2.62399
ltoes -3.10839
450
root 0.561908 18.5867 1.30099 -2.40806 4.1129 -1.75226
lowerback 2.25934 0.664249 -0.58926
upperback 3.14749 0.859825 1.67858
thorax 1.92757 0.39853 2.04819
lowerneck -7.17322 -1.17558 -2.23739
upperneck 33.82 -1.82925 1.97571
head 12.3811 -0.823618 0.931098
rclavicle 6.5102e-015 2.127e-014
rhumerus -27.2766 -4.45833 -81.1507
rradius 41.5696
rwrist 22.0341
rhand -23.8589 -22.4683
rfingers 7.12502
rthumb 2.61363 -52.4321
lclavicle 6.5102e-015 2.127e-014
lhumerus -25.3122 -10.3767 81.5732
lradius 44.2283
lwrist 35.2837
lhand -24.6747 -10.4199
lfingers 7.12502
lthumb 1.82578 19.552
rfemur -21.4422 -5.29413 18.5324
rtibia 21.9889
rfoot 15.3884 -5.22623
rtoes 7.09797
lfemur -20.3219 7.66189 -18.0071
ltibia 17.4422
lfoot 22.5865 -3.68713
ltoes -2.61993
451
root 0.564975 18.3051 1.53846 -3.3316 4.04951 -1.77858
lowerback 2.35019 0.690633 -0.551764
upperback 3.07344 0.896079 1.70668
thorax 1.79907 0.418515 2.05374
lowerneck -7.21351 -1.18154 -2.30979
upperneck 34.0888 -1.83438 1.99987
head 12.5041 -0.831194 0.954578
rclavicle -1.54307e-014 -1.07344e-014
rhumerus -27.1025 -4.5165 -81.0543
rradius 41.6344
rwrist 22.0481
rhand -23.9355 -22.5263
rfingers 7.12502
rthumb 2.53962 -52.4909
lclavicle -1.54307e-014 -1.07344e-014
lhumerus -25.275 -10.3177 81.0708
lradius 44.2168
lwrist 35.5842
lhand -24.8328 -10.5854
lfingers 7.12502
lthumb 1.67303 19.3878
rfemur -20.9191 -5.05446 18.4697
rtibia 23.2927
rfoot 14.1809 -3.21482
rtoes 5.46264
lfemur -19.7995 7.71681 -18.0034
ltibia 18.9753
lfoot 20.6652 -5.22265
ltoes -2.22118
452
root 0.566905 18.0173 1.76876 -4.27398 4.00451 -1.80586
lowerback 2.51395 0.708642 -0.535753
upperback 2.98509 0.921393 1.74534
thorax 1.61506 0.432933 2.08103
lowerneck -7.24556 -1.18237 -2.37869
upperneck 34.2481 -1.82901 2.01619
head 12.5792 -0.835018 0.974963
rclavicle 6.36111e-015 1.27222e-014
rhumerus -26.9055 -4.54932 -80.9672
rradius 41.6735
rwrist 22.0718
rhand -24.0119 -22.6021
rfingers 7.12502
rthumb 2.46591 -52.5676
lclavicle 6.36111e-015 1.27222e-014
lhumerus -25.1951 -10.2382 80.611
lradius 44.157
lwrist 35.9142
lhand -25.0186 -10.7611
lfingers 7.12502
lthumb 1.49357 19.2134
rfemur -20.3933 -4.78481 18.4201
rtibia 24.8801
rfoot 11.8643 -0.91852
rtoes 4.21063
lfemur -19.3421 7.79047 -17.9972
ltibia 20.9498
lfoot 17.0832 -6.88708
ltoes -2.14408
